<?xml version="1.0" encoding="UTF-8"?>
<svg version="1.1" xmlns="http://www.w3.org/2000/svg" width="500" height="500">
<path d="M0 0 C165 0 330 0 500 0 C500 165 500 330 500 500 C335 500 170 500 0 500 C0 335 0 170 0 0 Z " fill="#000000" transform="translate(0,0)"/>
<path d="M0 0 C1.20140625 0.27457031 2.4028125 0.54914063 3.640625 0.83203125 C11.8962378 2.85891376 19.86712539 5.6008201 27.875 8.4375 C28.93348145 8.8089917 29.99196289 9.1804834 31.08251953 9.56323242 C47.45906638 15.48724105 47.45906638 15.48724105 52 21 C52.5 24.375 52.5 24.375 52 28 C49.9375 30.4375 49.9375 30.4375 47 33 C41.58552444 38.25413801 38.69417037 43.35776553 36.140625 50.4609375 C35 53 35 53 32 55 C29.87890625 55.046875 29.87890625 55.046875 27.5625 54.75 C26.80066406 54.66234375 26.03882813 54.5746875 25.25390625 54.484375 C23 54 23 54 20.96484375 52.953125 C18.76415024 51.70903397 18.76415024 51.70903397 15 52 C15.33 52.99 15.66 53.98 16 55 C16 54.34 16 53.68 16 53 C18.77291781 53.48933844 21.28292695 54.10233528 23.9375 55.0625 C27.24145165 56.07391377 29.57111829 56.44724544 33 56 C36.74962995 53.01325062 37.88183053 50.06260578 39.3125 45.5625 C41.48877866 39.50972499 43.34983192 36.99126546 49 34 C67.29415119 45.25004812 67.29415119 45.25004812 72 52 C69.29273634 52.5064814 66.58442876 53.005351 63.875 53.5 C63.11445313 53.64308594 62.35390625 53.78617187 61.5703125 53.93359375 C60.44882812 54.13662109 60.44882812 54.13662109 59.3046875 54.34375 C58.62390137 54.46943359 57.94311523 54.59511719 57.24169922 54.72460938 C54.51344309 55.05977306 51.74876631 55 49 55 C48.67 62.26 48.34 69.52 48 77 C44.87631817 75.43815909 42.51443925 73.98183182 39.75 71.9375 C34.61177536 68.28263188 29.23438206 65.21773476 23.70996094 62.19702148 C19.66072657 59.97574722 15.80599843 57.61810141 12 55 C12.41421969 50.16743695 14.46413986 48.17320782 18 45 C19.64936913 45.78427352 21.29441127 46.57765259 22.9375 47.375 C23.85402344 47.81585938 24.77054688 48.25671875 25.71484375 48.7109375 C28 50 28 50 29 52 C29 52.33 29 52.66 29 53 C29 51.68 29 50.36 29 49 C-8.66564475 30.2337247 -51.68064957 26.70455978 -93 32 C-94.14710449 32.14477783 -94.14710449 32.14477783 -95.31738281 32.29248047 C-114.28208641 34.79562405 -133.04249316 40.05020473 -150 49 C-150 50.32 -150 51.64 -150 53 C-149.34 53 -148.68 53 -148 53 C-148.66 52.34 -149.32 51.68 -150 51 C-148.75443908 50.18071114 -147.50333365 49.36984814 -146.25 48.5625 C-145.55390625 48.11003906 -144.8578125 47.65757812 -144.140625 47.19140625 C-142.07042986 46.0391991 -140.31303676 45.45323018 -138 45 C-134.38860104 48.78756477 -134.38860104 48.78756477 -133 51 C-133.1875 53.875 -133.1875 53.875 -134 56 C-134.99 56 -135.98 56 -137 56 C-136.67 54.68 -136.34 53.36 -136 52 C-139.00795067 52.41971405 -141.64326942 52.84450206 -144.4375 54.0625 C-147.90287665 55.33032073 -150.34166792 55.53212103 -154 55 C-157.07870922 51.65740142 -158.21771021 48.37689189 -159.6875 44.125 C-161.64769079 38.90569682 -164.66846569 36.1192773 -168.9765625 32.69140625 C-171.95733384 30.19975762 -172.92933472 28.47699064 -173.5 24.625 C-173 21 -173 21 -170.6875 18.375 C-166.1595483 15.16161492 -161.12069335 13.08139037 -156 11 C-155.0713916 10.60941406 -155.0713916 10.60941406 -154.12402344 10.2109375 C-106.95877782 -9.43551031 -49.45817411 -11.86496601 0 0 Z " fill="#F9F9F9" transform="translate(309,317)"/>
<path d="M0 0 C6.90325783 1.97108964 13.6113923 4.26238829 20.30859375 6.84375 C21.74430977 7.3927169 21.74430977 7.3927169 23.20903015 7.95277405 C26.28670878 9.13125773 29.36217089 10.31540017 32.4375 11.5 C34.55516418 12.31244887 36.67284001 13.12486736 38.79052734 13.93725586 C51.37338739 18.77484807 63.91452174 23.6970457 76.34545898 28.9140625 C77.30653564 29.31496094 78.2676123 29.71585938 79.2578125 30.12890625 C80.0636377 30.46994385 80.86946289 30.81098145 81.69970703 31.16235352 C84.11614939 32.04229554 86.46946318 32.56011386 89 33 C89.38671875 32.27554688 89.7734375 31.55109375 90.171875 30.8046875 C92.9171697 25.70822457 95.67068867 20.73786613 99 16 C99.495 16.99 99.495 16.99 100 18 C99.328125 19.92578125 99.328125 19.92578125 98.25 22.3125 C87.57112463 47.84572796 88.94267506 80.88501974 99.14501953 106.29760742 C104.04751735 117.90797709 110.06796838 127.88422074 118.06640625 137.62890625 C120.81988035 141.00538863 123.4146263 144.49407657 126 148 C123.03824877 147.38722388 121.61941217 146.74627478 119 145 C116.17058946 144.79686283 113.39440131 144.68216616 110.5625 144.625 C99.07926072 144.17016153 88.95652171 141.60638786 80 134 C77 130.45637584 77 130.45637584 77 128 C84.92 127.67 92.84 127.34 101 127 C97.91742466 121.09682219 97.91742466 121.09682219 94.85620117 120.21459961 C94.09283447 120.19405518 93.32946777 120.17351074 92.54296875 120.15234375 C91.68485596 120.10754883 90.82674316 120.06275391 89.94262695 120.01660156 C89.03343506 119.99049805 88.12424316 119.96439453 87.1875 119.9375 C69.62644143 118.84418102 54.3158621 113.07143646 42 100 C39.5546437 96.5198604 39 95.37802752 39 91 C39.89074219 91.10957031 40.78148437 91.21914063 41.69921875 91.33203125 C56.11247479 93.07715924 70.55675784 94.52899728 85 96 C84.505 94.8553125 84.505 94.8553125 84 93.6875 C83 91 83 91 83 88 C82.39269043 87.94376465 81.78538086 87.8875293 81.15966797 87.82958984 C32.65828599 83.18157955 32.65828599 83.18157955 16 64.875 C11.05969663 58.78551335 9.86622074 54.68050331 10 47 C10.80695312 47.20753906 11.61390625 47.41507813 12.4453125 47.62890625 C21.29734111 49.8748031 30.1764066 51.98164781 39.07400513 54.03988647 C49.76961182 56.51471976 60.42602095 59.04147737 71 62 C73.14558558 62.58424396 75.29140185 63.16764171 77.4375 63.75 C78.95845693 64.16621529 80.47934339 64.58268883 82 65 C82 62.36 82 59.72 82 57 C80.99414604 56.73688019 80.99414604 56.73688019 79.9679718 56.46844482 C73.3374652 54.70177293 66.84063172 52.69150464 60.35546875 50.453125 C59.38321854 50.11883484 58.41096832 49.78454468 57.40925598 49.44012451 C55.36744633 48.73616163 53.32633033 48.03018386 51.28588867 47.32226562 C48.20876409 46.25735891 45.12702414 45.20664815 42.04492188 44.15625 C8.18242659 32.50274259 8.18242659 32.50274259 1 20 C-0.25118916 15.94930696 -0.11073352 11.95002652 -0.0625 7.75 C-0.05798828 7.00492188 -0.05347656 6.25984375 -0.04882812 5.4921875 C-0.03709246 3.6614236 -0.0191585 1.83070127 0 0 Z " fill="#FBFBFB" transform="translate(41,173)"/>
<path d="M0 0 C0.79336493 19.39336493 0.79336493 19.39336493 -5.51953125 26.77734375 C-16.91134243 38.11951741 -35.84956346 42.27705294 -50.61083984 47.21850586 C-54.28705721 48.4499129 -57.95819401 49.69564883 -61.62890625 50.94335938 C-63.96586459 51.73260407 -66.30309434 52.52104571 -68.640625 53.30859375 C-69.73739563 53.6803624 -70.83416626 54.05213104 -71.96417236 54.43516541 C-73.48285919 54.94183495 -73.48285919 54.94183495 -75.03222656 55.45874023 C-76.36667816 55.90672218 -76.36667816 55.90672218 -77.72808838 56.36375427 C-80 57 -80 57 -83 57 C-83 59.64 -83 62.28 -83 65 C-81.54811279 64.63539673 -81.54811279 64.63539673 -80.06689453 64.26342773 C-70.34531381 61.82548272 -60.61537412 59.42422114 -50.875 57.0625 C-50.16842255 56.89113525 -49.46184509 56.71977051 -48.7338562 56.54321289 C-39.52169321 54.31140622 -30.3034355 52.11017804 -21.0625 50 C-20.15806152 49.7925415 -19.25362305 49.58508301 -18.32177734 49.37133789 C-12.25050684 48 -12.25050684 48 -10 48 C-10.2117983 56.31789706 -12.85303895 61.31355991 -18.1875 67.5625 C-35.88412788 82.8995775 -60.8906598 88.43740076 -84 88 C-84.144375 89.11375 -84.28875 90.2275 -84.4375 91.375 C-85 95 -85 95 -86 97 C-84.8236499 96.82609741 -84.8236499 96.82609741 -83.62353516 96.64868164 C-68.77293555 94.4729568 -54.02588665 92.40229951 -39 92 C-40.05517961 98.71372519 -43.32651831 102.77696453 -48.50390625 107.08203125 C-60.37443189 115.52867739 -74.45502645 120.5405723 -89.04296875 121.12109375 C-94.20638276 121.10985313 -94.20638276 121.10985313 -98.57421875 123.39453125 C-99.84884306 125.20335657 -99.84884306 125.20335657 -101 128 C-100.35675781 127.98839844 -99.71351563 127.97679687 -99.05078125 127.96484375 C-91.65385931 127.89098005 -84.36585905 128.34421605 -77 129 C-79.88322844 135.32969221 -85.0840985 138.49667059 -91.3203125 141.08984375 C-98.69618103 143.59505857 -106.2991824 144.97652028 -114.0625 145.4375 C-118.48530281 145.73757217 -120.87632113 146.660895 -124 150 C-124.66 149.67 -125.32 149.34 -126 149 C-125.14728516 148.09121094 -125.14728516 148.09121094 -124.27734375 147.1640625 C-105.93040659 127.25503219 -91.89519416 101.0007966 -91.8671875 73.32421875 C-91.86589844 72.08349609 -91.86460937 70.84277344 -91.86328125 69.56445312 C-91.86908203 67.64536133 -91.86908203 67.64536133 -91.875 65.6875 C-91.87113281 64.41970703 -91.86726563 63.15191406 -91.86328125 61.84570312 C-91.87384357 51.64778573 -92.19398679 42.31634159 -95.5 32.625 C-98.28087538 24.18702955 -98.28087538 24.18702955 -99 21 C-96.50447597 23.27597646 -94.93377014 25.60721178 -93.3125 28.5625 C-92.87550781 29.34753906 -92.43851562 30.13257813 -91.98828125 30.94140625 C-91 33 -91 33 -91 35 C-90.25766113 34.68885254 -89.51532227 34.37770508 -88.75048828 34.05712891 C-72.40337023 27.2175931 -56.00514177 20.57654499 -39.43164062 14.30029297 C-36.33686359 13.12764197 -33.24392549 11.95033037 -30.1517334 10.77088928 C-26.85175012 9.51236379 -23.550876 8.25618172 -20.25 7 C-19.01765625 6.53070068 -17.7853125 6.06140137 -16.515625 5.57788086 C-15.360625 5.13968018 -14.205625 4.70147949 -13.015625 4.25 C-11.99758789 3.86328125 -10.97955078 3.4765625 -9.93066406 3.078125 C-1.5634058 0 -1.5634058 0 0 0 Z " fill="#FBFBFB" transform="translate(456,171)"/>
<path d="M0 0 C7.62478567 0.14411107 13.07661726 1.18109904 19.73046875 4.921875 C23.02594827 6.48736958 25.41703549 6.38945266 29 6 C29.495 6.99 29.495 6.99 30 8 C28.02 8 26.04 8 24 8 C24.03453934 10.10689973 24.07250084 12.21378377 24.125 14.3203125 C24 17 24 17 23.25 19.5546875 C22.38899692 22.85193794 22.168832 24.65819052 23 28 C26.69009938 32.8583218 31.54929395 36.73098212 36.28369141 40.53173828 C38 42 38 42 39.91015625 44.45703125 C42.91006932 46.67192034 45.15077014 46.10504176 48.75 45.640625 C49.9875 45.44726562 49.9875 45.44726562 51.25 45.25 C52.09046875 45.1365625 52.9309375 45.023125 53.796875 44.90625 C55.86737155 44.62390956 57.93415187 44.31455301 60 44 C60.33 38.39 60.66 32.78 61 27 C61.33 27 61.66 27 62 27 C62.06058594 27.92941406 62.12117188 28.85882813 62.18359375 29.81640625 C62.8261712 39.29689506 63.6885585 47.37415347 67.078125 56.265625 C68.2955703 59.87669155 68.71394417 63.20976022 69 67 C70.65 67.33 72.3 67.66 74 68 C71 70 71 70 68.3125 69.625 C67.549375 69.41875 66.78625 69.2125 66 69 C65.79375 69.680625 65.5875 70.36125 65.375 71.0625 C63.04862119 76.0324911 59.35133088 79.77437432 55.3125 83.4375 C52.30644806 86.76853053 51.36959965 89.74703266 50 94 C49.34 93.67 48.68 93.34 48 93 C48.33 90.36 48.66 87.72 49 85 C48.50371094 84.70867187 48.00742187 84.41734375 47.49609375 84.1171875 C42.57724147 81.1490755 38.24827824 77.86327803 34 74 C33.18917969 74.40992188 32.37835938 74.81984375 31.54296875 75.2421875 C24.39084764 78.72249789 17.91196966 81.08037226 10 82 C9.81824219 82.65226562 9.63648438 83.30453125 9.44921875 83.9765625 C8.28529342 88.02344135 7.18845363 91.64908634 5.1875 95.375 C3.69226882 97.86715518 3.69226882 97.86715518 4.71484375 99.97265625 C6.07426015 102.11714595 7.41588333 103.45841976 9.375 105.0625 C9.99246094 105.57167969 10.60992187 106.08085937 11.24609375 106.60546875 C13.13714411 108.10904332 15.03918775 109.58821518 17 111 C16.34 111.99 15.68 112.98 15 114 C15 113.01 15 112.02 15 111 C14.25363281 110.75121094 13.50726563 110.50242187 12.73828125 110.24609375 C9.75080447 108.88660004 8.38420762 107.46500915 6.1875 105.0625 C1.53828225 100.7403629 -3.03389941 99.82021058 -9.09887695 98.94824219 C-14.70249281 98.14231096 -18.9967851 96.59095057 -24 94 C-25.32 95.32 -26.64 96.64 -28 98 C-28 95 -28 95 -26.859375 93.0859375 C-25.71877331 91.0036209 -25.71877331 91.0036209 -26.828125 88.9140625 C-27.29734375 88.15867187 -27.7665625 87.40328125 -28.25 86.625 C-30.64772397 82.29114597 -31.42066846 78.79868595 -31.875 73.875 C-32.54284946 67.79823118 -34.00065099 64.71456633 -38.44140625 60.55078125 C-40 59 -40 59 -41 56 C-36.79373966 57.50223584 -35.26099979 60.28550034 -33 64 C-29.70046446 63.46781685 -26.69752968 62.56017955 -23.5625 61.4375 C-19.91685716 60.1816431 -16.88975459 59.70078811 -13 60 C-13.0825 58.906875 -13.165 57.81375 -13.25 56.6875 C-13.26168205 50.12219041 -10.72338642 43.85448729 -7.36328125 38.2890625 C-5.83476675 36.16660491 -5.83476675 36.16660491 -6 34.0625 C-7.21559708 31.55533101 -8.89749108 29.60921311 -10.72265625 27.51953125 C-12.87729322 24.95636984 -15 22.42372446 -15 19 C-22.06536889 20.25353319 -27.71456473 22.56203749 -34 26 C-34.66 25.34 -35.32 24.68 -36 24 C-33.81623234 22.86722732 -31.62842872 21.74377211 -29.4375 20.625 C-28.82841797 20.30789062 -28.21933594 19.99078125 -27.59179688 19.6640625 C-24.43362806 18.05991326 -21.68464705 16.91749297 -18.22265625 16.01171875 C-14.70428763 14.90716424 -13.87483079 14.25167657 -12 11.1875 C-9.15438439 6.98792212 -6.31794732 4.65719835 -2 2 C-1.34 2 -0.68 2 0 2 C0 1.34 0 0.68 0 0 Z " fill="#040403" transform="translate(235,189)"/>
<path d="M0 0 C1.82421875 1.3125 1.82421875 1.3125 3.6875 3 C4.37585938 3.62261719 5.06421875 4.24523437 5.7734375 4.88671875 C8.9283056 7.88107601 11.98727328 10.96390403 15.01953125 14.08203125 C17.04935277 16.16317067 17.04935277 16.16317067 20 18 C19.36683241 21.62276302 18.37831771 24.88144326 17.0625 28.3125 C15.76539803 31.69861883 14.85057862 34.72842925 14.375 38.3125 C12.57773876 43.13242787 10.31272919 44.38411756 5.8671875 46.7421875 C-6.80288008 52.30044603 -6.80288008 52.30044603 -13 50 C-15.34575701 48.10274658 -17.3788622 45.95069584 -19.4375 43.75 C-20.53782879 42.59653402 -21.640675 41.44546395 -22.74609375 40.296875 C-23.28161865 39.73790527 -23.81714355 39.17893555 -24.36889648 38.60302734 C-25.96362892 37.03574502 -27.62020629 35.65678991 -29.375 34.2734375 C-32 32 -32 32 -32.5625 28.875 C-31.28791977 20.09455838 -29.30998729 11.61530926 -23 5 C-19.17082948 3.11527829 -15.02347664 2.02299789 -10.9375 0.8125 C-9.72964844 0.44769531 -8.52179688 0.08289063 -7.27734375 -0.29296875 C-2.8167127 -1.25527414 -2.8167127 -1.25527414 0 0 Z " fill="#E8E9E6" transform="translate(256,218)"/>
<path d="M0 0 C0.66 0 1.32 0 2 0 C4.31 5.28 6.62 10.56 9 16 C13.0419264 13.57484416 16.03518436 11.3182688 19.44921875 8.20703125 C21 7 21 7 23 7 C25.29612756 18.52164009 25.29612756 18.52164009 25 24 C28.94121188 22.11942174 32.77939372 20.24200435 36.375 17.75 C39 16 39 16 41 16 C40.40414792 21.7693614 38.23012403 26.61661536 35.9375 31.875 C35.56044922 32.75414062 35.18339844 33.63328125 34.79492188 34.5390625 C33.86913928 36.69531564 32.93738089 38.84876979 32 41 C27.31996588 40.54709347 22.80884752 39.99545829 18.22265625 38.95703125 C12.29469998 37.72752074 6.47488097 37.65889953 0.4375 37.6875 C-0.69478027 37.68878906 -1.82706055 37.69007813 -2.99365234 37.69140625 C-12.2473217 37.79648695 -21.00250178 38.89473579 -30 41 C-31.10557592 38.64648632 -32.20948982 36.2922159 -33.3125 33.9375 C-33.62123047 33.28072266 -33.92996094 32.62394531 -34.24804688 31.94726562 C-35.17398162 29.96868927 -36.08989592 27.98590511 -37 26 C-37.29696777 25.35562988 -37.59393555 24.71125977 -37.89990234 24.04736328 C-39.18299756 21.1801999 -40 19.17890809 -40 16 C-36.30123909 17.37287342 -33.0485524 19.06355453 -29.6875 21.125 C-28.80449219 21.66382813 -27.92148438 22.20265625 -27.01171875 22.7578125 C-26.34785156 23.16773438 -25.68398437 23.57765625 -25 24 C-23.45357192 18.3297637 -22.51482919 12.852795 -22 7 C-17.81761166 7.54769371 -15.40131455 9.89888889 -12.25 12.5625 C-11.26515625 13.38878906 -10.2803125 14.21507812 -9.265625 15.06640625 C-8.14414063 16.02353516 -8.14414063 16.02353516 -7 17 C-6.82984375 16.443125 -6.6596875 15.88625 -6.484375 15.3125 C-4.76684063 9.90409391 -2.64657745 5.01937104 0 0 Z " fill="#FAFAFA" transform="translate(248,116)"/>
<path d="M0 0 C1.4540625 1.299375 1.4540625 1.299375 2.9375 2.625 C7.03550142 6.15196844 11.45085539 9.09102317 16 12 C14.84211115 19.17891089 12.98532211 25.51614568 8 31 C4.16744393 33.30383988 0.26755167 34.70680252 -4 36 C-4.76183594 36.25523437 -5.52367187 36.51046875 -6.30859375 36.7734375 C-10.8538787 38.13790901 -14.44660096 38.30097115 -19 37 C-23.48872966 34.25266076 -27.43191534 30.86542505 -31 27 C-29.58470296 22.53637089 -27.84355392 18.3016258 -26 14 C-25.31163487 12.00736409 -24.63718601 10.00958663 -24 8 C-23.03513672 7.88785156 -23.03513672 7.88785156 -22.05078125 7.7734375 C-13.96100613 6.59632329 -7.26430706 3.67257495 0 0 Z " fill="#E7E8E5" transform="translate(269,262)"/>
<path d="M0 0 C6.5756857 -0.74102366 10.82031985 -0.28758803 16.23046875 3.48828125 C22.5757817 8.69938772 27.77173808 13.92955958 28.734375 22.36328125 C28.91484764 27.47580721 28.7279381 32.63699878 27.6953125 37.66015625 C25.93941339 39.41605536 23.39653167 38.99561963 21.0078125 39.16015625 C17.71501431 39.38979099 14.8693672 39.60721272 11.703125 40.5703125 C8.24929293 40.67347891 7.92703959 40.36971106 5.51171875 38.125 C4.40880683 36.96634524 3.32460348 35.78965144 2.2578125 34.59765625 C1.17847288 33.437594 0.09643621 32.28003528 -0.98828125 31.125 C-1.52106689 30.53912109 -2.05385254 29.95324219 -2.6027832 29.34960938 C-4.36376564 27.60151033 -6.22452473 26.30064339 -8.25 24.875 C-10.46706 23.01990898 -11.22016982 22.20343564 -11.66918945 19.31713867 C-11.54548147 16.58204433 -11.20220606 13.98367514 -10.7421875 11.28515625 C-10.61521484 10.35832031 -10.48824219 9.43148437 -10.35742188 8.4765625 C-10.04019777 6.19724858 -9.68876723 3.92899508 -9.3046875 1.66015625 C-4.64399432 0.87672747 -4.64399432 0.87672747 0 0 Z " fill="#E5E6E3" transform="translate(268.3046875,195.33984375)"/>
<path d="M0 0 C1.76159418 2.37528238 3.14893269 4.79624283 4.5078125 7.421875 C5.89110987 10.10350065 5.89110987 10.10350065 8.2421875 12.078125 C9.11230469 13.02945313 9.11230469 13.02945313 10 14 C9.83418456 17.28977829 8.02333865 20.08699236 6.5625 23 C3.81950271 28.87445374 2.74906031 34.59385738 2 41 C1.19175781 41.19335938 0.38351563 41.38671875 -0.44921875 41.5859375 C-2.05216797 41.97652344 -2.05216797 41.97652344 -3.6875 42.375 C-4.74324219 42.63023437 -5.79898438 42.88546875 -6.88671875 43.1484375 C-9.97214972 43.91033088 -9.97214972 43.91033088 -12.64453125 45.1640625 C-15 46 -15 46 -17.08203125 45.93359375 C-19.8750524 44.57405799 -20.98765921 42.63254128 -22.6875 40.0625 C-23.59048828 38.71865234 -23.59048828 38.71865234 -24.51171875 37.34765625 C-27.81911407 32.13047885 -26.94239677 27.98830073 -26 22 C-24.4707489 15.18940083 -22.81191435 9.40086277 -16.9921875 5.1796875 C-5.40520984 -1.68162084 -5.40520984 -1.68162084 0 0 Z " fill="#E8E9E6" transform="translate(220,208)"/>
<path d="M0 0 C6.16896686 4.59621926 9.96275603 12.03727551 11.68359375 19.44140625 C11.96484375 21.63671875 11.96484375 21.63671875 12.08984375 24.88671875 C10.43984375 25.21671875 8.78984375 25.54671875 7.08984375 25.88671875 C6.8475 25.34402344 6.60515625 24.80132812 6.35546875 24.2421875 C3.79522089 18.66556595 3.79522089 18.66556595 -0.91015625 14.88671875 C-3.8155753 13.91824573 -5.87653079 13.69089063 -8.91015625 13.63671875 C-10.20953125 13.59804688 -10.20953125 13.59804688 -11.53515625 13.55859375 C-13.95881249 13.70178792 -13.95881249 13.70178792 -15.72265625 15.21484375 C-17.19969319 16.95257491 -17.19969319 16.95257491 -16.91015625 19.88671875 C-16.38421875 18.89671875 -16.38421875 18.89671875 -15.84765625 17.88671875 C-13.91015625 15.88671875 -13.91015625 15.88671875 -10.47265625 15.38671875 C-6.91015625 15.88671875 -6.91015625 15.88671875 -4.47265625 17.32421875 C-2.1388186 21.1517125 -1.91827073 24.5317214 -2.91015625 28.88671875 C-5.58432595 32.3349902 -7.0453676 33.54376911 -11.2890625 34.32421875 C-17.0838269 34.60732174 -21.43967487 33.63580216 -25.91015625 29.88671875 C-30.37120434 25.44627596 -34.18777056 21.12109964 -34.22265625 14.57421875 C-34.08182197 9.52903782 -33.07946286 5.23680091 -29.55078125 1.4140625 C-20.76543082 -6.35236842 -9.80649944 -5.71544446 0 0 Z " fill="#F8F8F8" transform="translate(233.91015625,356.11328125)"/>
<path d="M0 0 C3.78443516 2.69610086 6.30988589 5.82809517 7.79296875 10.27734375 C8.57557605 16.78196506 7.64829182 21.92272837 3.79296875 27.27734375 C-0.20691207 31.55209789 -4.38058065 34.96019649 -10.375 35.45703125 C-14.55451978 35.57975777 -17.58724232 35.57319297 -21.20703125 33.27734375 C-23.88789976 29.25604099 -23.88914211 26.00096147 -23.20703125 21.27734375 C-21.58203125 18.71484375 -21.58203125 18.71484375 -19.20703125 17.27734375 C-15.09925376 16.77435059 -13.69827142 16.9498503 -10.20703125 19.27734375 C-10.01953125 22.83984375 -10.01953125 22.83984375 -10.20703125 26.27734375 C-10.20703125 26.60734375 -10.20703125 26.93734375 -10.20703125 27.27734375 C-8.33438449 25.40469699 -8.97095747 22.77974428 -8.87890625 20.28515625 C-9.07196276 18.2123693 -9.07196276 18.2123693 -10.390625 16.546875 C-14.12188986 13.93900171 -18.87265956 14.73709971 -23.20703125 15.27734375 C-28.9672411 17.79088987 -30.91330719 21.71843602 -33.20703125 27.27734375 C-34.85703125 26.94734375 -36.50703125 26.61734375 -38.20703125 26.27734375 C-37.76518808 17.14591825 -35.21719643 9.74918199 -28.45703125 3.33984375 C-20.15702421 -3.2627885 -9.45924565 -5.30548508 0 0 Z " fill="#F9F9F9" transform="translate(288.20703125,354.72265625)"/>
<path d="M0 0 C7.7459375 4.10079044 9.41704459 9.90958594 12 18 C12.495 19.485 12.495 19.485 13 21 C19.54533686 23.18177895 24.0426135 21.749563 30 19 C30.99 19 31.98 19 33 19 C33 20.32 33 21.64 33 23 C29.97305824 25.8930721 26.08481467 27.67842052 22.4375 29.6875 C16.70741917 32.88559713 11.42406779 36.43673367 6.20703125 40.43359375 C4 42 4 42 1 43 C0.67 35.74 0.34 28.48 0 21 C-6.07194232 20.423102 -6.07194232 20.423102 -12.14550781 19.86376953 C-12.90702148 19.78755371 -13.66853516 19.71133789 -14.453125 19.6328125 C-15.22817383 19.55949707 -16.00322266 19.48618164 -16.80175781 19.41064453 C-19.15841885 18.97040643 -20.91656877 18.16622346 -23 17 C-15.98853366 10.19257104 -8.28099456 5.08874772 0 0 Z " fill="#F7F7F7" transform="translate(139,351)"/>
<path d="M0 0 C18.68681637 10.40264397 18.68681637 10.40264397 24 18 C21.29273634 18.5064814 18.58442876 19.005351 15.875 19.5 C15.11445313 19.64308594 14.35390625 19.78617187 13.5703125 19.93359375 C12.82265625 20.06894531 12.075 20.20429688 11.3046875 20.34375 C10.62390137 20.46943359 9.94311523 20.59511719 9.24169922 20.72460938 C6.51344309 21.05977306 3.74876631 21 1 21 C0.67 28.26 0.34 35.52 0 43 C-3.11949725 41.44025138 -5.53524742 39.96647727 -8.3125 37.9375 C-13.41392475 34.29690303 -18.73139495 31.11994145 -24.1730957 28.02124023 C-25.81397386 27.06703506 -27.41189988 26.03967621 -29 25 C-29 24.34 -29 23.68 -29 23 C-29.99 22.34 -30.98 21.68 -32 21 C-32 20.34 -32 19.68 -32 19 C-29.22708219 19.48933844 -26.71707305 20.10233528 -24.0625 21.0625 C-20.75854835 22.07391377 -18.42888171 22.44724544 -15 22 C-11.26280117 19.01742786 -10.08582367 16.04339531 -8.625 11.5625 C-6.61599991 5.99237513 -4.99880877 3.1387869 0 0 Z " fill="#F8F8F8" transform="translate(357,351)"/>
<path d="M0 0 C3.75262553 1.25087518 4.3499406 2.62162064 6.5 5.875 C8.77699434 9.41163203 8.77699434 9.41163203 11.6640625 12.4140625 C13.73884729 14.87711111 13.58831938 17.33952096 13.875 20.5 C14.70867142 27.41372337 16.73234251 32.88873218 20 39 C18.35 40.98 16.7 42.96 15 45 C4.491008 37.1902354 -0.95822451 23.68817626 -3 11 C-3.13268805 9.44091547 -3.21812776 7.876896 -3.25 6.3125 C-3.27578125 5.54550781 -3.3015625 4.77851563 -3.328125 3.98828125 C-3.21984375 3.33214844 -3.1115625 2.67601562 -3 2 C-2.01 1.34 -1.02 0.68 0 0 Z " fill="#BABBB8" transform="translate(190,242)"/>
<path d="M0 0 C0.71542969 0.33773438 1.43085938 0.67546875 2.16796875 1.0234375 C7.73739436 3.51634987 12.52455363 5.21321875 18.625 5.75 C25.16388745 6.53498049 28.38697116 9.24009146 32.87890625 13.90625 C34.86604242 15.86776931 36.4469664 16.9347887 39 18 C38.505 20.475 38.505 20.475 38 23 C21.38512687 24.06052382 7.54463599 17.51446543 -5 7 C-1.125 1.125 -1.125 1.125 0 0 Z " fill="#BABBB9" transform="translate(211,282)"/>
<path d="M0 0 C0 1.98 0 3.96 0 6 C-22.53560426 8.0726133 -22.53560426 8.0726133 -29.8828125 3.21484375 C-33.62341836 1.06848135 -37.76496043 1.09911795 -42 1 C-42.33 -1.64 -42.66 -4.28 -43 -7 C-28.66312357 -11.53513438 -12.79089354 -6.37026785 0 0 Z " fill="#F4F4F4" transform="translate(279,189)"/>
<path d="M0 0 C2.14348481 3.21522722 2.57450148 4.26574038 2 8 C0.2421875 9.51953125 0.2421875 9.51953125 -2.125 10.8125 C-5.64453373 12.92422024 -7.65861325 14.6386788 -9.8125 18.125 C-12.98039207 22.79253845 -16.88132263 23.66191607 -22.15234375 25.125 C-24.70630257 25.90975552 -26.42027014 26.70372882 -28.5625 28.25 C-31 30 -31 30 -34 30 C-34.9375 27.5 -34.9375 27.5 -35 24 C-33.09058798 20.91702909 -30.58971311 18.51856714 -28 16 C-27.35804688 15.32582031 -26.71609375 14.65164062 -26.0546875 13.95703125 C-19.21884868 7.23815545 -9.48125214 1.88669753 0 0 Z " fill="#E6E7E4" transform="translate(233,183)"/>
<path d="M0 0 C4.42658066 -1.00773759 8.65563944 -1.48656585 13 0 C16.11462726 2.02785835 18.69349099 4.43594432 21.3125 7.0625 C21.97644775 7.71806885 22.64039551 8.3736377 23.32446289 9.04907227 C26.46412545 12.41728471 27.88956928 14.21268459 28.54296875 18.87109375 C28 22 28 22 26 24 C17.97909527 24 12.5625171 20.52865287 6.9453125 14.96484375 C0.10798615 7.3756952 0.10798615 7.3756952 -0.125 2.25 C-0.063125 1.13625 -0.063125 1.13625 0 0 Z " fill="#FAFAFA" transform="translate(268,197)"/>
<path d="M0 0 C1.65 0 3.3 0 5 0 C5.79955001 1.51670364 6.58921388 3.03861998 7.375 4.5625 C7.81585938 5.40941406 8.25671875 6.25632813 8.7109375 7.12890625 C11.98427783 14.41952788 12.28143908 20.88878193 12.1875 28.75 C12.18685547 29.79027344 12.18621094 30.83054688 12.18554688 31.90234375 C12.14086673 39.57739981 12.14086673 39.57739981 11 43 C9.33388095 43.042721 7.66617115 43.04063832 6 43 C3.84306935 40.84306935 4.17358975 36.39312519 3.79296875 33.46875 C3.10304523 30.45075943 2.28896813 28.49355829 0.91015625 25.78515625 C-1.58069756 20.42328652 -1.25732053 15.72336983 -0.75 9.9375 C-0.65138672 8.49600586 -0.65138672 8.49600586 -0.55078125 7.02539062 C-0.38751149 4.68130333 -0.20363709 2.34086593 0 0 Z " fill="#E5E6E3" transform="translate(298,214)"/>
<path d="M0 0 C2.31 0.33 4.62 0.66 7 1 C4.92432041 14.83786391 -3.8991253 26.68114371 -14.8125 35.1875 C-18 37 -18 37 -20.19921875 36.61328125 C-20.79347656 36.41089844 -21.38773437 36.20851563 -22 36 C-20.68856394 32.6035619 -19.22338202 29.36397864 -17.5625 26.125 C-16.04923175 23.16864405 -14.77231988 20.37905422 -13.625 17.25 C-11.80321472 13.60642944 -9.92584696 12.08163488 -6.78515625 9.62109375 C-3.79456348 6.90534758 -1.93404705 3.51158773 0 0 Z " fill="#E6E7E4" transform="translate(301,258)"/>
<path d="M0 0 C0.33 0.99 0.66 1.98 1 3 C14.77681671 4.96585187 28.61154018 5.10449133 42 1 C37.55806954 10.30690192 37.55806954 10.30690192 32.7421875 12.44921875 C31.4589641 12.8797893 30.16941693 13.29185104 28.875 13.6875 C27.86348877 14.00231323 27.86348877 14.00231323 26.83154297 14.32348633 C24.89520844 14.90782534 22.94775824 15.45494831 21 16 C20.11828125 16.2475 19.2365625 16.495 18.328125 16.75 C13.72016103 17.66505668 11.21849249 16.89271573 7.25 14.375 C3.86497251 11.83771144 0.84792662 9.12353242 -2 6 C-1.34 4.02 -0.68 2.04 0 0 Z " fill="#BCBDBA" transform="translate(240,283)"/>
<path d="M0 0 C1.26779297 -0.02449219 2.53558594 -0.04898438 3.84179688 -0.07421875 C12.57046733 -0.10106243 19.88638799 1.33019829 28.0625 4.375 C28.0625 6.025 28.0625 7.675 28.0625 9.375 C20.81785513 8.52268884 20.81785513 8.52268884 17.4453125 7.86328125 C3.20832187 5.20092624 -12.52683283 4.63115141 -26.51171875 8.71875 C-28.9375 9.375 -28.9375 9.375 -32.9375 9.375 C-32.9375 7.725 -32.9375 6.075 -32.9375 4.375 C-22.39237834 0.27411935 -11.17131137 0.01132419 0 0 Z " fill="#F6F6F6" transform="translate(250.9375,155.625)"/>
<path d="M0 0 C3.3 0 6.6 0 10 0 C10.391875 1.5675 10.78375 3.135 11.1875 4.75 C12.51304118 9.24919265 13.84712891 11.5307253 18 14 C17 15 17 15 14.125 15.1875 C11 15 11 15 8 13 C7.67 15.64 7.34 18.28 7 21 C5.68 21 4.36 21 3 21 C2.67 18.36 2.34 15.72 2 13 C1.443125 13.33 0.88625 13.66 0.3125 14 C-2.30284522 15.1309601 -4.1806646 15.15662974 -7 15 C-7.33 14.34 -7.66 13.68 -8 13 C-7.236875 12.71125 -6.47375 12.4225 -5.6875 12.125 C-1.53972891 8.84536704 -1.2500471 5.06598037 0 0 Z " fill="#F0F0F0" transform="translate(243,394)"/>
<path d="M0 0 C11.479819 -0.37031674 11.479819 -0.37031674 13.87109375 1.33203125 C15.60584113 3.8951355 15.24219684 5.97253954 15 9 C14.79375 9.86625 14.5875 10.7325 14.375 11.625 C13.92732587 14.46026949 14.49668552 15.61238289 16 18 C13.6875 18.25 13.6875 18.25 11 18 C9.375 16.0625 9.375 16.0625 8 14 C7.01 13.67 6.02 13.34 5 13 C5 14.98 5 16.96 5 19 C3.68 19 2.36 19 1 19 C0.67 12.73 0.34 6.46 0 0 Z " fill="#080808" transform="translate(222,318)"/>
<path d="M0 0 C1.6065676 0.25620684 3.2102483 0.53055871 4.8125 0.8125 C6.15248047 1.03873047 6.15248047 1.03873047 7.51953125 1.26953125 C10.23934354 2.07048384 11.3368743 2.72670156 13 5 C13.4375 8.5 13.4375 8.5 13 12 C11.375 13.9375 11.375 13.9375 9 15 C5.88810534 15.24895157 3.80915474 15.40457737 1 14 C0.67 15.65 0.34 17.3 0 19 C-1.32 18.67 -2.64 18.34 -4 18 C-2.83445193 11.9490696 -1.54656904 5.96533774 0 0 Z " fill="#0E0E0E" transform="translate(305,323)"/>
<path d="M0 0 C2.13671875 -0.4609375 2.13671875 -0.4609375 5 0 C7.30475219 2.19329478 9.02254985 4.75579391 10.8125 7.375 C11.31458984 8.07367188 11.81667969 8.77234375 12.33398438 9.4921875 C16 14.67947491 16 14.67947491 16 17 C12.49267216 17.10020937 9.42715826 16.70300682 6 16 C4.68 16 3.36 16 2 16 C2 17.32 2 18.64 2 20 C0.68 20 -0.64 20 -2 20 C-1.85879984 17.41633755 -1.71221667 14.83317115 -1.5625 12.25 C-1.52318359 11.52039063 -1.48386719 10.79078125 -1.44335938 10.0390625 C-1.23852902 6.5727027 -0.9147998 3.34666974 0 0 Z " fill="#111111" transform="translate(185,324)"/>
<path d="M0 0 C6.6 0 13.2 0 20 0 C18.46959779 3.82600552 16.85381466 7.3965815 15 11.0625 C14.484375 12.08472656 13.96875 13.10695313 13.4375 14.16015625 C12.7259375 15.56587891 12.7259375 15.56587891 12 17 C11.33245513 18.33289387 10.66538677 19.66602749 10 21 C9.74347656 20.48566406 9.48695313 19.97132813 9.22265625 19.44140625 C8.25527083 17.5097261 7.28283453 15.5805755 6.30859375 13.65234375 C5.68484938 12.4140859 5.06115262 11.17580406 4.4375 9.9375 C4.12103516 9.31294922 3.80457031 8.68839844 3.47851562 8.04492188 C2.14162627 5.3853352 0.94288231 2.82864693 0 0 Z " fill="#F9F9F9" transform="translate(238,353)"/>
<path d="M0 0 C2.5625 1.875 2.5625 1.875 4 4 C4 4.99 4 5.98 4 7 C-0.75 6.25 -0.75 6.25 -3 4 C-6.82564665 4.18757062 -6.82564665 4.18757062 -10 6 C-9.71269945 8.33944736 -9.38063221 10.6739143 -9 13 C-6.09926819 13.67801034 -6.09926819 13.67801034 -3 14 C-2.34 13.34 -1.68 12.68 -1 12 C1.625 11.875 1.625 11.875 4 12 C2.67517784 14.51716211 1.53365431 16.56517056 -0.6875 18.375 C-4.28787999 19.34807567 -7.4437532 19.10039604 -11 18 C-13.72438773 15.82048981 -14.7398552 14.2596485 -15.4453125 10.84375 C-15.78972176 6.35145537 -15.39838656 4.51075201 -12.5625 0.875 C-8.54402589 -1.88352498 -4.49392802 -1.42407207 0 0 Z " fill="#0F0F0F" transform="translate(270,318)"/>
<path d="M0 0 C0.66 0.33 1.32 0.66 2 1 C-3.35690658 10.10674119 -9.40471994 18.98428542 -19 24 C-21.375 23.75 -21.375 23.75 -23 23 C-22.36971413 21.31923769 -21.69040574 19.65697379 -21 18 C-20.731875 17.32582031 -20.46375 16.65164063 -20.1875 15.95703125 C-19.7234375 14.89548828 -19.7234375 14.89548828 -19.25 13.8125 C-18.96640625 13.13832031 -18.6828125 12.46414063 -18.390625 11.76953125 C-16.38303171 9.21492518 -14.06538981 8.9686038 -11 8 C-8.9938563 6.6957447 -7.03367302 5.31814301 -5.125 3.875 C-4.15820312 3.15054687 -3.19140625 2.42609375 -2.1953125 1.6796875 C-1.47085937 1.12539063 -0.74640625 0.57109375 0 0 Z " fill="#B7B8B6" transform="translate(302,271)"/>
<path d="M0 0 C1.65 0 3.3 0 5 0 C5.79955001 1.51670364 6.58921388 3.03861998 7.375 4.5625 C8.03628906 5.83287109 8.03628906 5.83287109 8.7109375 7.12890625 C11.97590352 14.40087602 12.30920584 20.90522616 12.25 28.75 C12.25773437 29.79027344 12.26546875 30.83054688 12.2734375 31.90234375 C12.27085937 32.89878906 12.26828125 33.89523438 12.265625 34.921875 C12.26336914 35.82518555 12.26111328 36.72849609 12.25878906 37.65917969 C12 40 12 40 10 43 C9.91363281 41.86304688 9.82726562 40.72609375 9.73828125 39.5546875 C8.84040441 29.22404694 6.90010427 20.65214484 3 11 C0 2.55511811 0 2.55511811 0 0 Z " fill="#F4F4F4" transform="translate(298,214)"/>
<path d="M0 0 C1.65 0 3.3 0 5 0 C4.47462276 5.0302076 3.89405214 10.01885239 3 15 C4.98 15 6.96 15 9 15 C9.99 10.71 10.98 6.42 12 2 C13.32 2 14.64 2 16 2 C15.91227545 3.89666526 15.80408699 5.79238993 15.6875 7.6875 C15.62949219 8.74324219 15.57148438 9.79898437 15.51171875 10.88671875 C14.95643103 14.26507231 14.0073475 16.24919046 12 19 C8.90826248 20.54586876 6.40570448 20.29359521 3 20 C0.7578125 18.49609375 0.7578125 18.49609375 -1 16 C-1.12914478 13.07663182 -1.0694249 10.61975385 -0.75 7.75 C-0.68425781 7.00492187 -0.61851562 6.25984375 -0.55078125 5.4921875 C-0.38632189 3.65964035 -0.19571111 1.82947345 0 0 Z " fill="#0D0D0D" transform="translate(281,319)"/>
<path d="M0 0 C0 2.31 0 4.62 0 7 C-0.70382813 7.13535156 -1.40765625 7.27070313 -2.1328125 7.41015625 C-13.51433831 9.89150718 -23.82843969 14.79377404 -33 22 C-28.01741718 11.02873591 -15.75883875 5.08166062 -5 1 C-1.37419355 0 -1.37419355 0 0 0 Z " fill="#F8F8F8" transform="translate(234,183)"/>
<path d="M0 0 C1.56041016 -0.04253906 1.56041016 -0.04253906 3.15234375 -0.0859375 C6.69261638 0.47480367 7.82851837 1.65115734 10.0625 4.375 C9.25 6.3125 9.25 6.3125 8.0625 8.375 C4.99551363 9.39732879 2.77585122 9.5409049 -0.4375 9.5625 C-1.87609375 9.58376953 -1.87609375 9.58376953 -3.34375 9.60546875 C-5.9375 9.375 -5.9375 9.375 -8.9375 7.375 C-9.3125 4.875 -9.3125 4.875 -8.9375 2.375 C-5.51828453 0.09552302 -4.03439823 0.04986895 0 0 Z " fill="#F5F5F5" transform="translate(247.9375,382.625)"/>
<path d="M0 0 C0 1.32 0 2.64 0 4 C-2.31 4.33 -4.62 4.66 -7 5 C-7 6.65 -7 8.3 -7 10 C-4.36 9.67 -1.72 9.34 1 9 C1 10.32 1 11.64 1 13 C-1.31 13 -3.62 13 -6 13 C-5.67 15.31 -5.34 17.62 -5 20 C-6.65 20.33 -8.3 20.66 -10 21 C-10.66 14.4 -11.32 7.8 -12 1 C-2 0 -2 0 0 0 Z " fill="#181818" transform="translate(215,319)"/>
<path d="M0 0 C6.36570608 0.25982474 9.65586208 2.39223366 14 7 C16.1519437 10.22791555 16.20086443 11.28400809 16 15 C12.97037807 15.44335931 10.81306152 15.49401206 8.1484375 13.875 C4.29720997 10.72846517 1.78680424 7.72977592 0 3 C0 2.01 0 1.02 0 0 Z " fill="#F3F3F3" transform="translate(301,163)"/>
<path d="M0 0 C-0.69424064 5.90104543 -3.3650565 9.67813079 -7.9375 13.375 C-11.02303514 15.01222273 -12.58279506 15.40202411 -16 15 C-15.71637301 9.18564666 -13.18303812 5.80098077 -9 2 C-5.8323972 0.13239604 -3.67884649 -0.20438036 0 0 Z " fill="#F5F5F5" transform="translate(196,163)"/>
<path d="M0 0 C-0.66 0.33 -1.32 0.66 -2 1 C-2 1.66 -2 2.32 -2 3 C-2.61818604 3.01981934 -3.23637207 3.03963867 -3.87329102 3.06005859 C-16.02639176 3.46835766 -27.98685108 4.04525381 -40 6 C-40.33 5.01 -40.66 4.02 -41 3 C-27.4470827 -0.7572444 -13.95988568 -0.30930323 0 0 Z " fill="#1E1E1E" transform="translate(261,153)"/>
<path d="M0 0 C2 2 2 2 2.1875 3.91796875 C1.66180821 10.2810298 -0.40555916 13.63036361 -5 18 C-5.99 17.67 -6.98 17.34 -8 17 C-8.315109 11.7481833 -7.8689708 8.45185123 -5 4 C-2.3125 1.625 -2.3125 1.625 0 0 Z " fill="#EAEAEA" transform="translate(167,251)"/>
<path d="M0 0 C-0.22565317 5.52850255 -1.53273577 8.54284598 -5.30078125 12.62109375 C-7.73225387 14.59421981 -9.91937475 14.92665178 -13 15 C-12.6298852 8.83142002 -11.24224897 6.24224897 -7 2 C-4.28509275 0.24329531 -3.28565953 0 0 0 Z " fill="#ECECEC" transform="translate(355,240)"/>
<path d="M0 0 C3.13025051 2.99415266 3.95039301 4.25589516 4.25 8.75 C4.22057365 12.78140986 3.08730131 15.52116449 1 19 C0.01 19 -0.98 19 -2 19 C-4.44246402 14.68172362 -4.72407088 10.87484932 -4 6 C-2.89681842 3.64494715 -1.66718358 2.03187998 0 0 Z " fill="#E9E9E9" transform="translate(333,178)"/>
<path d="M0 0 C0 4 0 4 -1.75 6.125 C-6.24026756 9.86688963 -9.10629628 10.22668091 -15 10 C-15.33 9.01 -15.66 8.02 -16 7 C-10.55226178 1.24960965 -7.9911838 -0.30735322 0 0 Z " fill="#EBEBEB" transform="translate(183,190)"/>
<path d="M0 0 C3.95781786 0.27612683 5.69956508 0.74053348 8.75 3.375 C12.31999917 7.53999904 13.24205083 9.55385623 13 15 C8.1357806 14.58306691 6.10123327 12.67251308 3 9 C1.08924361 5.70559244 0 3.81633363 0 0 Z " fill="#EEEEEE" transform="translate(328,226)"/>
<path d="M0 0 C3.11989469 2.98424709 3.94014492 4.281739 4.3125 8.75 C4.27267988 13.11428468 2.84585821 15.65193151 0 19 C-0.66 19 -1.32 19 -2 19 C-4.10916478 14.78167045 -4.7794568 10.64955042 -4 6 C-2.88061576 3.69796198 -1.61438027 2.01797533 0 0 Z " fill="#EEEEEE" transform="translate(174,276)"/>
<path d="M0 0 C-0.4770795 5.00933477 -1.85582479 8.06978099 -5 12 C-7.98893229 14.18702362 -9.27944454 15 -13 15 C-13.58353108 11.6655367 -13.46121107 9.66457973 -11.51171875 6.85546875 C-5.54560811 0 -5.54560811 0 0 0 Z " fill="#F0F0F0" transform="translate(169,226)"/>
<path d="M0 0 C5.59792221 -0.5831169 8.57865413 0.50979162 13.30078125 3.515625 C15.20352019 5.17778775 16.02700306 6.68851489 17 9 C13.89046621 10.5547669 11.43733239 10.28644437 8 10 C4.5382316 8.06939839 1.65295213 5.94772458 -1 3 C-0.67 2.01 -0.34 1.02 0 0 Z " fill="#EBEBEB" transform="translate(314,190)"/>
<path d="M0 0 C-0.27612683 3.95781786 -0.74053348 5.69956508 -3.375 8.75 C-7.1494201 11.98521723 -9.04924965 13.26760813 -14 13 C-13.72991214 9.12874073 -13.24063252 7.29410641 -10.75 4.25 C-7.17728974 1.32687343 -4.6258642 0 0 0 Z " fill="#EFEFEF" transform="translate(353,257)"/>
<path d="M0 0 C5.46663236 1.27130985 7.91436914 3.32747327 11 8 C11.8125 11.875 11.8125 11.875 12 15 C8.90815797 14.92638471 6.72207606 14.57408299 4.265625 12.62109375 C1.18395569 9.34131713 0.06295624 7.66104056 -0.375 3.0625 C-0.25125 2.051875 -0.1275 1.04125 0 0 Z " fill="#F1F1F1" transform="translate(143,240)"/>
<path d="M0 0 C4.94003331 4.7806774 4.94003331 4.7806774 5.1875 9.8125 C5.15598345 13.27301752 4.56594316 15.86811369 3 19 C0.67241689 18.06896676 -0.74357132 17.34617872 -2.25 15.3125 C-3.76334564 10.64635096 -3.448809 7.02852063 -1.5 2.5625 C-1.005 1.716875 -0.51 0.87125 0 0 Z " fill="#EEEEEE" transform="translate(163,178)"/>
<path d="M0 0 C3.46892258 1.28478614 5.39531636 2.0380033 7.375 5.1875 C7.58125 5.785625 7.7875 6.38375 8 7 C6.28960219 8.71039781 4.14906044 8.29301542 1.8125 8.375 C-2.13383286 8.35444618 -4.59452005 8.15291631 -7.6875 5.625 C-10 3 -10 3 -10 1 C-6.79997581 -0.6000121 -3.48065124 -0.36229827 0 0 Z " fill="#F2F2F2" transform="translate(172,301)"/>
<path d="M0 0 C5.2688427 0.41324256 8.22944438 1.22944438 12 5 C14.00796384 8.05975443 14 9.14485886 14 13 C9.63908251 12.8255633 6.81308425 12.27618026 3.625 9.3125 C0.97645716 6.40332927 0.18951976 3.97991486 0 0 Z " fill="#F2F2F2" transform="translate(144,257)"/>
<path d="M0 0 C0.66 0.33 1.32 0.66 2 1 C1.04908327 3.50696229 0.06198622 4.94401245 -1.9375 6.75 C-6.55953986 8.63654688 -11.07123991 8.23305871 -16 8 C-15.40022951 4.75578691 -15.09384822 4.0844634 -12.5 1.75 C-8.17358231 -0.41320885 -4.75455661 -0.58005591 0 0 Z " fill="#F3F3F3" transform="translate(333,301)"/>
<path d="M0 0 C2.54563057 0.96558401 3.94635204 1.93868805 5.75 4 C7.52172889 8.25214934 7.62072311 12.44534339 7 17 C6.34 17.66 5.68 18.32 5 19 C0.26965596 13.42061985 -1.51073133 10.58586244 -1 3 C-0.67 2.01 -0.34 1.02 0 0 Z " fill="#F4F4F4" transform="translate(326,264)"/>
<path d="M0 0 C4.21690386 0.78680177 5.52843079 2.5057125 8 6 C9.60725635 9.21451269 9.05748185 12.43612536 9 16 C5 16 5 16 2.8125 14.1875 C0.12287286 10.94139828 -0.12149087 8.38287003 -0.0625 4.3125 C-0.05347656 3.50425781 -0.04445313 2.69601563 -0.03515625 1.86328125 C-0.02355469 1.24839844 -0.01195312 0.63351563 0 0 Z " fill="#F3F3F3" transform="translate(329,252)"/>
<path d="M0 0 C-0.62223167 6.34676303 -1.79379553 10.00903499 -6.5625 14.3125 C-9 16 -9 16 -11 16 C-11.44933921 7.16299559 -11.44933921 7.16299559 -8 3 C-5.03759752 0.8522582 -3.68553144 0 0 0 Z " fill="#F1F1F1" transform="translate(168,239)"/>
<path d="M0 0 C3.35077886 0.58274415 5.49475072 2.21632872 8.06640625 4.359375 C9.05640625 5.844375 9.05640625 5.844375 10.06640625 7.359375 C6.1079636 9.33859632 1.36901889 8.92821549 -2.93359375 8.359375 C-5.51963198 6.95594628 -6.9063233 5.55101873 -8.93359375 3.359375 C-6.64037717 -0.08044988 -3.95683966 -0.14573995 0 0 Z " fill="#F4F4F4" transform="translate(312.93359375,179.640625)"/>
<path d="M0 0 C3.9668392 3.79436793 3.9668392 3.79436793 4.0546875 6.98828125 C3.70733634 11.48119298 3.42459244 13.49256026 0.4375 17.0625 C-0.366875 17.701875 -1.17125 18.34125 -2 19 C-4.44246402 14.68172362 -4.72407088 10.87484932 -4 6 C-2.89681842 3.64494715 -1.66718358 2.03187998 0 0 Z " fill="#F2F2F2" transform="translate(174,166)"/>
<path d="M0 0 C0.66 0 1.32 0 2 0 C3.72305453 3.44610906 3.379435 7.22462175 3 11 C1.5 14.5625 1.5 14.5625 0 17 C-1.65 16.67 -3.3 16.34 -5 16 C-5.51332816 10.96938406 -5.59992032 7.19486398 -2.625 2.9375 C-1.75875 1.968125 -0.8925 0.99875 0 0 Z " fill="#F0F0F0" transform="translate(307,297)"/>
<path d="M0 0 C-0.78680177 4.21690386 -2.5057125 5.52843079 -6 8 C-8.40545638 9.20272819 -9.94996953 9.10071472 -12.625 9.0625 C-13.85089844 9.04896484 -13.85089844 9.04896484 -15.1015625 9.03515625 C-16.04128906 9.01775391 -16.04128906 9.01775391 -17 9 C-16.06026802 5.61696486 -15.0726148 4.06553043 -12.4375 1.6875 C-8.09935347 -0.44213557 -4.73624704 -0.37889976 0 0 Z " fill="#F5F5F5" transform="translate(343,288)"/>
<path d="M0 0 C4.73624704 -0.37889976 8.09935347 -0.44213557 12.4375 1.6875 C15.0726148 4.06553043 16.06026802 5.61696486 17 9 C10.72191742 9.50224661 7.05364422 9.19082691 2 5 C1.34 4.34 0.68 3.68 0 3 C0 2.01 0 1.02 0 0 Z " fill="#F6F6F6" transform="translate(154,288)"/>
<path d="M0 0 C-1.32485724 4.63700036 -3.81261074 7.66052383 -8 10 C-10.73375554 10.67360523 -13.16612854 10.85342044 -16 11 C-15.88721848 7.16542825 -14.62045075 5.25459606 -11.9375 2.6875 C-7.91010159 -0.57953896 -5.04941757 -0.53151764 0 0 Z " fill="#F5F5F5" transform="translate(350,273)"/>
<path d="M0 0 C0.66 0 1.32 0 2 0 C3.59984287 3.19968574 3.3629489 6.51957927 3 10 C1.41427168 14.20218005 -0.17203445 16.62402138 -4 19 C-5.48855749 14.53432752 -6.14767116 9.51965987 -4.140625 5.11328125 C-2.90834657 3.26932839 -1.57086336 1.57086336 0 0 Z " fill="#F4F4F4" transform="translate(169,264)"/>
<path d="M0 0 C3.27620952 -0.57333667 5.32474243 -0.43541198 8.14453125 1.3828125 C12.14170259 4.71018756 14.36433385 6.66593186 15 12 C10.33513993 12.32545535 7.66349238 11.98863852 4 9 C0 3.3713355 0 3.3713355 0 0 Z " fill="#F2F2F2" transform="translate(325,214)"/>
<path d="M0 0 C3.85036851 1.51264477 5.88348422 3.44727709 8 7 C8.32555094 10.03169311 8.23810803 12.96412257 8 16 C6.68 16 5.36 16 4 16 C0.44413281 12.2409404 -0.94531311 9.58591985 -1.125 4.375 C-1 1 -1 1 0 0 Z " fill="#F4F4F4" transform="translate(148,208)"/>
<path d="M0 0 C0.99 0 1.98 0 3 0 C6.55363739 5.33045608 7.74958936 8.57494834 7 15 C5.5 17 5.5 17 4 18 C0.44830754 13.64631247 -1.14118618 11.56219638 -1.125 5.9375 C-1.12757813 5.03902344 -1.13015625 4.14054688 -1.1328125 3.21484375 C-1 1 -1 1 0 0 Z " fill="#F4F4F4" transform="translate(154,193)"/>
<path d="M0 0 C2.49005677 2.49005677 2.29703766 3.37470732 2.3125 6.8125 C2.22761545 11.01428533 1.78894269 13.69458644 -1 17 C-1.99 17.66 -2.98 18.32 -4 19 C-6.34728069 15.33237392 -6.4430704 12.28301385 -6 8 C-4.24505919 4.89960457 -2.51174333 2.51174333 0 0 Z " fill="#F3F3F3" transform="translate(342,192)"/>
<path d="M0 0 C2 1.5 2 1.5 3 3 C-1.30390271 6.51107853 -3.43649197 8.14706753 -9 8.1875 C-10.3303125 8.20876953 -10.3303125 8.20876953 -11.6875 8.23046875 C-14 8 -14 8 -16 6 C-10.58708615 1.41079043 -7.46918632 -0.91646458 0 0 Z " fill="#F6F6F6" transform="translate(190,180)"/>
<path d="M0 0 C5.01615953 -0.29506821 7.99681229 -0.13763361 12 3 C16 7.32432432 16 7.32432432 16 11 C12.24373441 11.35773958 10.26070693 11.13556761 6.875 9.375 C3.81789371 6.84956437 1.97661758 4.42106889 0 1 C0 0.67 0 0.34 0 0 Z " fill="#F5F5F5" transform="translate(147,273)"/>
<path d="M0 0 C0.42014232 6.09206361 0.06715472 9.11941433 -4 14 C-7 16 -7 16 -10 16 C-10.71920089 9.16759156 -10.71920089 9.16759156 -8.734375 5.9453125 C-3.65248963 0 -3.65248963 0 0 0 Z " fill="#F5F5F5" transform="translate(353,224)"/>
<path d="M0 0 C-1.2745632 4.98238343 -2.87700219 7.86293645 -7 11 C-9.73343024 11.68969668 -12.15986725 11.85558647 -15 12 C-13.90750083 6.90167055 -11.83463978 4.30320058 -7.88671875 1.125 C-5.2000997 -0.47695919 -3.0438687 -0.4454442 0 0 Z " fill="#F4F4F4" transform="translate(172,214)"/>
<path d="M0 0 C0.99 0.33 1.98 0.66 3 1 C3.31565274 6.26087893 2.7659748 9.49248551 0 14 C-1.6875 15.875 -1.6875 15.875 -3 17 C-3.99 16.67 -4.98 16.34 -6 16 C-6.27312207 10.62859937 -6.40444214 7.41316574 -3 3 C-1.3125 1.1875 -1.3125 1.1875 0 0 Z " fill="#F7F7F7" transform="translate(347,208)"/>
<path d="M0 0 C-0.47276852 4.25491665 -2.92547477 6.22542845 -6 9 C-9.21451269 10.60725635 -12.43612536 10.05748185 -16 10 C-14.86334902 6.02172159 -13.05649681 3.51937866 -9.796875 0.9375 C-6.54384838 -0.75973128 -3.59295121 -0.30973717 0 0 Z " fill="#F5F5F5" transform="translate(177,202)"/>
<path d="M0 0 C3 1 3 1 4 3 C4.52274617 8.67983816 4.71435943 13.35705072 1 18 C0.01 17.67 -0.98 17.34 -2 17 C-3.28282363 14.43435275 -3.20391953 12.48966931 -3.25 9.625 C-3.27578125 8.66851562 -3.3015625 7.71203125 -3.328125 6.7265625 C-2.95439914 3.62107853 -2.06626291 2.29463934 0 0 Z " fill="#F4F4F4" transform="translate(315,288)"/>
<path d="M0 0 C3.97827841 1.13665098 6.48062134 2.94350319 9.0625 6.203125 C10.75973128 9.45615162 10.30973717 12.40704879 10 16 C5.74257863 15.52695318 3.74294902 13.1136178 1 10 C-0.1577506 6.52674819 -0.06866652 3.63932552 0 0 Z " fill="#F6F6F6" transform="translate(144,224)"/>
<path d="M0 0 C3.04511256 2.28383442 4.76427703 3.58337361 5.40234375 7.41796875 C5.46150749 11.86839706 5.25034787 15.08674447 3 19 C-0.875 16.375 -0.875 16.375 -2 13 C-2.11766176 11.33631742 -2.17509083 9.66779197 -2.1875 8 C-2.20167969 7.13375 -2.21585937 6.2675 -2.23046875 5.375 C-2 3 -2 3 0 0 Z " fill="#F6F6F6" transform="translate(322,166)"/>
<path d="M0 0 C2.85278483 0.29511567 3.83578823 0.81232941 5.75 3 C7.4428059 7.06273416 7.25533894 10.65923807 7 15 C5.35 15.33 3.7 15.66 2 16 C-1.00974609 10.98375652 -1.37937519 7.69062784 -1 2 C-0.67 1.34 -0.34 0.68 0 0 Z " fill="#F5F5F5" transform="translate(188,298)"/>
<path d="M0 0 C3.875 1.75 3.875 1.75 5 4 C5.12176503 5.80948495 5.17545792 7.62396271 5.1875 9.4375 C5.20167969 10.40558594 5.21585938 11.37367188 5.23046875 12.37109375 C5 15 5 15 3 18 C2.34 18 1.68 18 1 18 C-2.04192948 13.0568646 -2.83464938 8.69079125 -2 3 C-1.34 2.01 -0.68 1.02 0 0 Z " fill="#F5F5F5" transform="translate(180,288)"/>
<path d="M0 0 C4.94003331 4.7806774 4.94003331 4.7806774 5.1875 9.8125 C5.15598345 13.27301752 4.56594316 15.86811369 3 19 C0 18 0 18 -1.171875 16.28515625 C-2.16252962 13.55151026 -2.26580466 11.34160625 -2.25 8.4375 C-2.25515625 7.48746094 -2.2603125 6.53742188 -2.265625 5.55859375 C-2 3 -2 3 0 0 Z " fill="#F7F7F7" transform="translate(322,276)"/>
<path d="M0 0 C3.84096129 0.87294575 5.70169982 1.6702998 8.375 4.625 C10.4093357 8.85015876 10.31939183 11.36881845 10 16 C5.57258356 14.64717831 3.63690779 12.76701112 1 9 C-0.4783226 6.04335481 -0.06032783 3.25770263 0 0 Z " fill="#F7F7F7" transform="translate(330,239)"/>
<path d="M0 0 C5.01615953 -0.29506821 7.99681229 -0.13763361 12 3 C16 7.43243243 16 7.43243243 16 10 C9.22575007 10.71307894 9.22575007 10.71307894 5.9453125 8.8046875 C2.66425083 6.09542911 0.7386655 4.30109027 0 0 Z " fill="#F9F9F9" transform="translate(320,202)"/>
<path d="M0 0 C1.62938774 0.59223134 3.25341128 1.19923628 4.875 1.8125 C6.23238281 2.31716797 6.23238281 2.31716797 7.6171875 2.83203125 C10 4 10 4 12 7 C11.01 7.495 11.01 7.495 10 8 C10.66 8.66 11.32 9.32 12 10 C8.2203966 9.48459954 5.38359812 8.69179906 2 7 C0.68 7 -0.64 7 -2 7 C-2 7.99 -2 8.98 -2 10 C0.475 10.99 0.475 10.99 3 12 C2.34 12.66 1.68 13.32 1 14 C-0.98 12.68 -2.96 11.36 -5 10 C-4.49701212 5.59885603 -2.91227269 3.28804981 0 0 Z " fill="#E7E7E7" transform="translate(326,362)"/>
<path d="M0 0 C1.485 0.495 1.485 0.495 3 1 C2.23816406 1.50402344 1.47632813 2.00804687 0.69140625 2.52734375 C-2.54138889 5.49738631 -3.69154073 8.51211606 -5.0625 12.5625 C-7.3891681 19.36002052 -7.3891681 19.36002052 -9.8828125 21.97265625 C-14.3418493 24.13635861 -19.66254436 22.79018412 -24.20703125 21.25390625 C-25.83148036 20.56244013 -27.42089638 19.78955181 -29 19 C-28.67 19.99 -28.34 20.98 -28 22 C-28.99 21.67 -29.98 21.34 -31 21 C-30.67 19.68 -30.34 18.36 -30 17 C-26.97547086 17.42202732 -24.31992598 17.86403146 -21.5 19.0625 C-18.45669476 20.20373947 -16.22612892 20.35066619 -13 20 C-9.87914496 17.65139735 -8.95734463 14.71070602 -7.625 11.125 C-5.7021712 6.29747238 -4.04442204 3.23553763 0 0 Z " fill="#212121" transform="translate(354,351)"/>
<path d="M0 0 C9.86046401 -0.40460871 20.93413321 -0.53293339 30 4 C32.0374763 4.22858114 34.08040303 4.41024278 36.125 4.5625 C37.76855469 4.68818359 37.76855469 4.68818359 39.4453125 4.81640625 C40.70988281 4.90728516 40.70988281 4.90728516 42 5 C42 5.33 42 5.66 42 6 C19.46439574 8.0726133 19.46439574 8.0726133 12.1171875 3.21484375 C8.37658164 1.06848135 4.23503957 1.09911795 0 1 C0 0.67 0 0.34 0 0 Z " fill="#CECFCD" transform="translate(237,189)"/>
<path d="M0 0 C3.53586014 3.17320782 5.58578031 5.16743695 6 10 C4.02 10.99 4.02 10.99 2 12 C2.33 10.35 2.66 8.7 3 7 C-0.1021772 7.43286193 -2.78863484 7.91152156 -5.6875 9.125 C-8 10 -8 10 -11 9 C-10.34 8.67 -9.68 8.34 -9 8 C-9.66 7.34 -10.32 6.68 -11 6 C-9.73168307 5.18357746 -8.46024069 4.37200895 -7.1875 3.5625 C-6.47980469 3.11003906 -5.77210938 2.65757812 -5.04296875 2.19140625 C-3 1 -3 1 0 0 Z " fill="#E4E4E4" transform="translate(170,362)"/>
<path d="M0 0 C0.66 0 1.32 0 2 0 C2.34933594 0.92683594 2.69867188 1.85367187 3.05859375 2.80859375 C3.51363281 4.00613281 3.96867188 5.20367187 4.4375 6.4375 C4.88996094 7.63246094 5.34242188 8.82742188 5.80859375 10.05859375 C6.7144826 12.84445723 6.7144826 12.84445723 8 14 C12.17899254 14.3343194 14.74207879 14.11117294 18.625 12.4375 C22.14713176 10.93733277 23.44896472 10.81632157 27 12 C26.67 13.32 26.34 14.64 26 16 C25.01 16 24.02 16 23 16 C23.66 15.01 24.32 14.02 25 13 C24.03900391 13.433125 24.03900391 13.433125 23.05859375 13.875 C13.51165147 17.97264438 13.51165147 17.97264438 8 17 C2.98935317 13.46977155 1.33086908 8.77791941 0 3 C0 2.01 0 1.02 0 0 Z " fill="#111111" transform="translate(147,357)"/>
<path d="M0 0 C1.32 0 2.64 0 4 0 C4 6.27 4 12.54 4 19 C2.68 19 1.36 19 0 19 C0 12.73 0 6.46 0 0 Z " fill="#0C0C0C" transform="translate(244,317)"/>
<path d="M0 0 C3.125 0.375 3.125 0.375 6 1 C6.625 3.875 6.625 3.875 7 7 C5 9 5 9 2.5 9.25 C0 9 0 9 -2 7 C-2.25 4.5 -2.25 4.5 -2 2 C-1.34 1.34 -0.68 0.68 0 0 Z " fill="#EEEEEE" transform="translate(203,122)"/>
<path d="M0 0 C2.5 0.25 2.5 0.25 4.5 2.25 C4.75 4.75 4.75 4.75 4.5 7.25 C3.84 7.91 3.18 8.57 2.5 9.25 C-0.625 8.875 -0.625 8.875 -3.5 8.25 C-4.125 5.375 -4.125 5.375 -4.5 2.25 C-2.5 0.25 -2.5 0.25 0 0 Z " fill="#EEEEEE" transform="translate(271.5,111.75)"/>
<path d="M0 0 C3 0.125 3 0.125 4 1.125 C4.25 4.0625 4.25 4.0625 4 7.125 C1 9.125 1 9.125 -1.0625 8.875 C-3 8.125 -3 8.125 -5 6.125 C-4.27477017 0.17811542 -4.27477017 0.17811542 0 0 Z " fill="#EDEDED" transform="translate(249,104.875)"/>
<path d="M0 0 C2.5625 0.1875 2.5625 0.1875 4.5625 2.1875 C4.1875 5.3125 4.1875 5.3125 3.5625 8.1875 C1.25 8.875 1.25 8.875 -1.4375 9.1875 C-3.3125 8.0625 -3.3125 8.0625 -4.4375 6.1875 C-3.87661439 0.29820111 -3.87661439 0.29820111 0 0 Z " fill="#F0F0F0" transform="translate(225.4375,111.8125)"/>
<path d="M0 0 C4.55555556 0.55555556 4.55555556 0.55555556 6 2 C6.125 5 6.125 5 6 8 C5 9 5 9 2.5625 9.1875 C0 9 0 9 -2 7 C-2.25 4.5 -2.25 4.5 -2 2 C-1.34 1.34 -0.68 0.68 0 0 Z " fill="#F3F3F3" transform="translate(290,122)"/>
<path d="M0 0 C0.886875 -0.01417969 1.77375 -0.02835937 2.6875 -0.04296875 C5 0.1875 5 0.1875 7 2.1875 C1.32010626 4.67868146 -1.94474232 5.57516322 -8 4.1875 C-7.67 3.1975 -7.34 2.2075 -7 1.1875 C-4.52224905 -0.05137548 -2.76346293 0.02008331 0 0 Z " fill="#ECECEC" transform="translate(181,312.8125)"/>
<path d="M0 0 C0.77085937 -0.01417969 1.54171875 -0.02835937 2.3359375 -0.04296875 C4.84334888 0.20948393 6.45761902 0.93556533 8.625 2.1875 C8.625 2.8475 8.625 3.5075 8.625 4.1875 C3.83721343 5.73194728 -0.71730555 4.83309039 -5.375 3.1875 C-5.705 2.5275 -6.035 1.8675 -6.375 1.1875 C-4.04904054 0.02452027 -2.58776769 0.02149309 0 0 Z " fill="#EFEFEF" transform="translate(315.375,312.8125)"/>
<path d="M0 0 C0 0.66 0 1.32 0 2 C-1.27875 2.226875 -2.5575 2.45375 -3.875 2.6875 C-9.38668828 3.88797901 -14.07825159 6.30793719 -19 9 C-19.66 8.34 -20.32 7.68 -21 7 C-18.730384 5.85170023 -16.45939222 4.70628022 -14.1875 3.5625 C-13.54490234 3.23701172 -12.90230469 2.91152344 -12.24023438 2.57617188 C-4.39844952 -1.36503606 -4.39844952 -1.36503606 0 0 Z " fill="#212120" transform="translate(220,206)"/>
<path d="M0 0 C2.96358359 0.41352329 5.6081608 0.83501508 8.375 2 C11.90969795 3.3465516 15.23934616 3.61756063 19 4 C18.67 4.66 18.34 5.32 18 6 C11.69732561 5.63223832 6.66748157 4.83374078 1 2 C1.33 2.99 1.66 3.98 2 5 C1.01 4.67 0.02 4.34 -1 4 C-0.67 2.68 -0.34 1.36 0 0 Z " fill="#161616" transform="translate(324,368)"/>
<path d="M0 0 C1.36722938 3.69151932 0.5123038 5.47129113 -1 9 C-1.37593066 10.9924325 -1.71979545 12.9918674 -2 15 C-3.32 15 -4.64 15 -6 15 C-5.46147465 9.72245155 -4.34981281 5.69962561 -2 1 C-1.34 0.67 -0.68 0.34 0 0 Z " fill="#262626" transform="translate(252,366)"/>
<path d="M0 0 C6.53279418 2.96017236 11.81778634 8.24945621 16 14 C13 14 13 14 11.46606445 12.82250977 C10.937146 12.28424561 10.40822754 11.74598145 9.86328125 11.19140625 C9.28642578 10.60939453 8.70957031 10.02738281 8.11523438 9.42773438 C7.52033203 8.81220703 6.92542969 8.19667969 6.3125 7.5625 C5.70599609 6.95083984 5.09949219 6.33917969 4.47460938 5.70898438 C0 1.1538421 0 1.1538421 0 0 Z " fill="#191919" transform="translate(258,219)"/>
<path d="M0 0 C-3.96287499 2.40174242 -7.97215247 4.70965533 -12 7 C-10.68 7.66 -9.36 8.32 -8 9 C-9.65 9.33 -11.3 9.66 -13 10 C-13.33 8.35 -13.66 6.7 -14 5 C-12.23628182 3.96692229 -10.46374967 2.94887951 -8.6875 1.9375 C-7.70136719 1.36902344 -6.71523437 0.80054688 -5.69921875 0.21484375 C-3 -1 -3 -1 0 0 Z " fill="#282828" transform="translate(172,361)"/>
<path d="M0 0 C2.31 0.33 4.62 0.66 7 1 C7 2.32 7 3.64 7 5 C4.69 5.33 2.38 5.66 0 6 C0 4.02 0 2.04 0 0 Z " fill="#DBDBDB" transform="translate(226,321)"/>
<path d="M0 0 C0.99 0.33 1.98 0.66 3 1 C3 2.98 3 4.96 3 7 C0.36 6.67 -2.28 6.34 -5 6 C-3.35 4.02 -1.7 2.04 0 0 Z " fill="#E7E7E7" transform="translate(297,306)"/>
<path d="M0 0 C1.65 0 3.3 0 5 0 C5.38218767 1.65614657 5.71395102 3.32457024 6 5 C5 6 5 6 2.4375 6.0625 C1.2309375 6.0315625 1.2309375 6.0315625 0 6 C0 4.02 0 2.04 0 0 Z " fill="#F0F0F0" transform="translate(308,328)"/>
<path d="M0 0 C0.99 0.33 1.98 0.66 3 1 C2.071875 2.4540625 2.071875 2.4540625 1.125 3.9375 C-1.27764602 8.09527042 -2.19069829 12.30392036 -3 17 C-5 14 -5 14 -4.875 11.3125 C-3.79079853 7.20802301 -2.02596896 3.7127059 0 0 Z " fill="#222222" transform="translate(228,226)"/>
<path d="M0 0 C0.33 0 0.66 0 1 0 C1.13277344 0.80824219 1.26554688 1.61648437 1.40234375 2.44921875 C1.57894531 3.51785156 1.75554687 4.58648437 1.9375 5.6875 C2.11152344 6.74324219 2.28554687 7.79898438 2.46484375 8.88671875 C2.93167121 11.60249604 3.44422616 14.30124235 4 17 C0.125 13.25 0.125 13.25 -1 11 C-0.91255632 9.12137125 -0.75824458 7.24544819 -0.5625 5.375 C-0.40974609 3.87066406 -0.40974609 3.87066406 -0.25390625 2.3359375 C-0.17011719 1.56507813 -0.08632812 0.79421875 0 0 Z " fill="#B7B7B5" transform="translate(194,230)"/>
<path d="M0 0 C0.33 0.66 0.66 1.32 1 2 C1.99 2.33 2.98 2.66 4 3 C5.6875 6.0625 5.6875 6.0625 7 9 C3.06830895 9 1.83572772 7.60580385 -1 5 C-1 4.34 -1 3.68 -1 3 C-1.66 2.67 -2.32 2.34 -3 2 C-2.01 2 -1.02 2 0 2 C0 1.34 0 0.68 0 0 Z " fill="#262626" transform="translate(317,176)"/>
<path d="M0 0 C0.99 0.33 1.98 0.66 3 1 C0.12544529 3.31431667 -2.65526805 4.89924391 -6.0625 6.3125 C-7.34833984 6.86357422 -7.34833984 6.86357422 -8.66015625 7.42578125 C-9.43230469 7.61527344 -10.20445312 7.80476563 -11 8 C-11.99 7.34 -12.98 6.68 -14 6 C-13.24074219 5.73445313 -12.48148438 5.46890625 -11.69921875 5.1953125 C-10.70535156 4.84210938 -9.71148437 4.48890625 -8.6875 4.125 C-7.70136719 3.77695312 -6.71523438 3.42890625 -5.69921875 3.0703125 C-2.84405623 2.04694076 -2.84405623 2.04694076 0 0 Z " fill="#222222" transform="translate(266,261)"/>
<path d="M0 0 C0.66 0 1.32 0 2 0 C3.65 4.62 5.3 9.24 7 14 C6.01 14.495 6.01 14.495 5 15 C2.62886517 10.03715966 0.56825653 5.54050113 0 0 Z " fill="#232323" transform="translate(147,357)"/>
<path d="M0 0 C4.67692308 1.47692308 4.67692308 1.47692308 6.3125 4.125 C6.539375 4.74375 6.76625 5.3625 7 6 C4.69 6.33 2.38 6.66 0 7 C0 4.69 0 2.38 0 0 Z " fill="#F5F5F5" transform="translate(198,306)"/>
<path d="M0 0 C2.31 0 4.62 0 7 0 C6.01 0.495 6.01 0.495 5 1 C5 1.66 5 2.32 5 3 C-0.94 3 -6.88 3 -13 3 C-13 2.67 -13 2.34 -13 2 C-8.71 2 -4.42 2 0 2 C0 1.34 0 0.68 0 0 Z " fill="#525252" transform="translate(254,153)"/>
<path d="M0 0 C1.32 0.33 2.64 0.66 4 1 C2.5361389 5.39158329 0.02168662 5.87947433 -4 8 C-4 4.09161134 -2.49432124 2.88405893 0 0 Z " fill="#222222" transform="translate(179,177)"/>
<path d="M0 0 C0.33 0 0.66 0 1 0 C1.33 2.97 1.66 5.94 2 9 C-1.3 8.67 -4.6 8.34 -8 8 C-8 7.67 -8 7.34 -8 7 C-4.535 6.505 -4.535 6.505 -1 6 C-0.67 4.02 -0.34 2.04 0 0 Z " fill="#212121" transform="translate(301,307)"/>
<path d="M0 0 C-0.33 1.32 -0.66 2.64 -1 4 C-1.99 4 -2.98 4 -4 4 C-3.34 3.01 -2.68 2.02 -2 1 C-3.98 1.66 -5.96 2.32 -8 3 C-8.33 2.34 -8.66 1.68 -9 1 C-5.64919071 -1.10976881 -3.77897651 -1.0497157 0 0 Z " fill="#202020" transform="translate(174,369)"/>
<path d="M0 0 C-2.88628401 1.57554035 -5.53342384 2.46276373 -8.75 3.125 C-9.54921875 3.29257812 -10.3484375 3.46015625 -11.171875 3.6328125 C-11.77515625 3.75398438 -12.3784375 3.87515625 -13 4 C-9.49154254 -1.2626862 -5.91047419 -1.37452888 0 0 Z " fill="#2B2B2B" transform="translate(188,317)"/>
<path d="M0 0 C1.32 0 2.64 0 4 0 C2.25 7.75 2.25 7.75 0 10 C-1.231394 6.30581799 -0.64432764 3.7943739 0 0 Z " fill="#323231" transform="translate(284,273)"/>
<path d="M0 0 C0.66 0.33 1.32 0.66 2 1 C-1.34003602 5.32239956 -4.32751069 8.17477391 -9 11 C-7.59155282 7.78475695 -5.89655214 5.67816132 -3.375 3.25 C-2.74335938 2.63640625 -2.11171875 2.0228125 -1.4609375 1.390625 C-0.73777344 0.70226562 -0.73777344 0.70226562 0 0 Z " fill="#F1F1F1" transform="translate(210,194)"/>
<path d="M0 0 C0.66 0.33 1.32 0.66 2 1 C1.34 1.86625 0.68 2.7325 0 3.625 C-2.12695385 7.21423463 -2.38790972 8.92694798 -2 13 C-2.66 12.67 -3.32 12.34 -4 12 C-4.49230769 4.61538462 -4.49230769 4.61538462 -2 1.5 C-1.34 1.005 -0.68 0.51 0 0 Z " fill="#1A1A1A" transform="translate(220,369)"/>
<path d="M0 0 C0.33 0 0.66 0 1 0 C1.103125 0.94875 1.20625 1.8975 1.3125 2.875 C1.68539295 6.29107501 1.68539295 6.29107501 5 8 C2.36 8.33 -0.28 8.66 -3 9 C-3 8.01 -3 7.02 -3 6 C-2.34 5.67 -1.68 5.34 -1 5 C-0.34444881 2.47266765 -0.34444881 2.47266765 0 0 Z " fill="#3B3B3B" transform="translate(197,307)"/>
<path d="M0 0 C0 0.99 0 1.98 0 3 C-3.3 2.34 -6.6 1.68 -10 1 C-6.1496895 -1.56687367 -4.41430237 -0.83288724 0 0 Z " fill="#333333" transform="translate(319,317)"/>
<path d="M0 0 C1 3 1 3 0.22265625 4.82421875 C-0.8515625 6.54947917 -1.92578125 8.27473958 -3 10 C-3.66 9.34 -4.32 8.68 -5 8 C-3.35 5.36 -1.7 2.72 0 0 Z " fill="#151515" transform="translate(283,282)"/>
<path d="M0 0 C0.391875 0.61875 0.78375 1.2375 1.1875 1.875 C3.27717491 4.32496368 4.97463327 5.01879998 8 6 C7.34 6.66 6.68 7.32 6 8 C3 6.25 3 6.25 0 4 C0 2.68 0 1.36 0 0 Z " fill="#BCBCBC" transform="translate(321,368)"/>
<path d="M0 0 C-2.97180943 1.89865603 -5.51460083 3.35455571 -9 4 C-9 3.34 -9 2.68 -9 2 C-3.375 -1.125 -3.375 -1.125 0 0 Z " fill="#191919" transform="translate(172,361)"/>
<path d="M0 0 C0.66 0 1.32 0 2 0 C2.66 1.98 3.32 3.96 4 6 C2.68 6 1.36 6 0 6 C0 4.02 0 2.04 0 0 Z " fill="#E3E3E3" transform="translate(188,330)"/>
<path d="M0 0 C3.96 1.98 3.96 1.98 8 4 C7.34 5.32 6.68 6.64 6 8 C6 7.01 6 6.02 6 5 C5.195625 4.731875 4.39125 4.46375 3.5625 4.1875 C2.716875 3.795625 1.87125 3.40375 1 3 C0.67 2.01 0.34 1.02 0 0 Z " fill="#161616" transform="translate(244,295)"/>
<path d="M0 0 C3.82946843 1.45255699 5.12050295 3.42895561 7 7 C6.01 7 5.02 7 4 7 C2.02 3.535 2.02 3.535 0 0 Z " fill="#1A1A1A" transform="translate(194,245)"/>
<path d="M0 0 C0 0.66 0 1.32 0 2 C-2.31 2.33 -4.62 2.66 -7 3 C-7 2.01 -7 1.02 -7 0 C-3.86650268 -1.04449911 -3.01031744 -0.93423645 0 0 Z " fill="#414140" transform="translate(220,206)"/>
</svg>
